<svg xmlns="http://www.w3.org/2000/svg" xmlns:xlink="http://www.w3.org/1999/xlink" id="Layer_1" x="0px" y="0px" viewBox="0 0 649 173" style="enable-background:new 0 0 649 173;" xml:space="preserve">
<style type="text/css">
	.st0{fill:#F16624;}
	.st1{fill:#4461A6;stroke:#4461A6;stroke-width:1.7938;stroke-miterlimit:10;}
	.st2{fill-rule:evenodd;clip-rule:evenodd;fill:#1A1919;}
	.st3{fill-rule:evenodd;clip-rule:evenodd;fill:#CEE0E9;}
	.st4{fill-rule:evenodd;clip-rule:evenodd;fill:#CEE0E9;stroke:#CEE0E9;stroke-width:0.1026;stroke-miterlimit:22.9256;}
	.st5{fill-rule:evenodd;clip-rule:evenodd;fill:#4D4D4D;}
	.st6{fill-rule:evenodd;clip-rule:evenodd;fill:#FFCC02;}
	.st7{fill-rule:evenodd;clip-rule:evenodd;fill:#FBB016;}
	.st8{fill-rule:evenodd;clip-rule:evenodd;fill:#FFFFFF;}
	.st9{fill-rule:evenodd;clip-rule:evenodd;fill:#F16624;}
	.st10{fill-rule:evenodd;clip-rule:evenodd;fill:#78ADC4;}
	.st11{fill-rule:evenodd;clip-rule:evenodd;fill:#355D7E;}
	.st12{fill-rule:evenodd;clip-rule:evenodd;fill:#EC1C27;}
	.st13{fill-rule:evenodd;clip-rule:evenodd;fill:#C12026;}
	.st14{fill-rule:evenodd;clip-rule:evenodd;fill:#C35328;}
	.st15{fill-rule:evenodd;clip-rule:evenodd;fill:#F5B639;}
	.st16{fill-rule:evenodd;clip-rule:evenodd;fill:#4461A6;}
</style>
<g>
	<g>
		<path class="st0" d="M239.1,144.4c-0.4-0.5-1.7-2-4.1-2c-3,0-5.4,2.5-5.4,5.5c0,3.1,2.5,5.6,5.4,5.6c1.5,0,3-0.7,4-1.9l2.6,0    c-1.6,2.8-4.3,3.9-6.6,3.9c-4.1,0-7.5-3.5-7.5-7.6c0-4.2,3.4-7.5,7.5-7.5c1.1,0,2.9,0.3,4.4,1.4c1.3,0.9,1.9,1.9,2.2,2.6    L239.1,144.4z"></path>
		<path class="st0" d="M254.9,155.3l0-5.9c0-0.8,0-3.4-2.7-3.4c-1.7,0-2.9,1.2-2.9,3.4l0,5.9l-2,0l0-14.5l2,0l0,4.8l0,0    c1-1.5,2.6-1.4,3-1.4c1.7,0,3.1,0.7,3.8,1.9c0.4,0.7,0.7,1.6,0.7,2.8l0,6.4L254.9,155.3z"></path>
		<path class="st0" d="M265.5,155.3l-2,0l0-10.9l2,0L265.5,155.3z M265.5,143.1l-2,0l0-2.4l2,0L265.5,143.1z"></path>
		<path class="st0" d="M274.1,155.3l-2,0l0-14.5l2,0L274.1,155.3z"></path>
		<path class="st0" d="M289.6,155.3l0-1.6h0c-0.9,1.2-2.3,1.8-3.9,1.8c-3.6,0-5.7-2.8-5.6-5.7c0-2.7,1.8-5.8,5.7-5.8    c1.5,0,2.9,0.6,3.7,1.6l0,0l0-5l2,0l0,14.5L289.6,155.3z M285.9,146c-2.5,0-3.7,2.2-3.7,3.9c0,2,1.5,3.8,3.7,3.8    c2.1,0,3.8-1.7,3.8-3.8C289.7,147.6,288,146,285.9,146z"></path>
		<path class="st0" d="M298.1,155.3l0-10.9l1.9,0l0,1h0c0.9-1.2,2.3-1.3,2.8-1.3l0,2.1c-0.3,0-1,0.1-1.5,0.4    c-0.6,0.4-1.2,1.2-1.2,2.7l0,5.9L298.1,155.3z"></path>
		<path class="st0" d="M309.7,150.8c0.5,2.1,2.2,3,3.6,3c1.5,0,2.6-0.9,3.1-1.8l2,0c-1,2.8-3.5,3.7-5.2,3.7c-3.1,0-5.5-2.7-5.5-5.7    c0-3.3,2.5-5.7,5.6-5.7c2.9,0,5.5,2.4,5.5,5.6c0,0.4,0,0.9-0.1,1L309.7,150.8z M316.7,149.2c-0.1-1.6-1.5-3.2-3.5-3.2    c-2,0-3.4,1.6-3.5,3.2L316.7,149.2z"></path>
		<path class="st0" d="M332.3,155.4l0-5.9c0-0.8,0-3.4-2.7-3.4c-1.7,0-2.9,1.2-2.9,3.4l0,5.9l-2,0l0-10.9l1.9,0l0,1.2h0    c1.1-1.5,2.8-1.4,3.2-1.4c1.7,0,3.1,0.7,3.8,1.9c0.4,0.7,0.7,1.6,0.7,2.8l0,6.4L332.3,155.4z"></path>
		<path class="st0" d="M351.4,155.4l0-12.6l-2.8,0l0-1.9l7.7,0l0,1.9l-2.8,0l0,12.6L351.4,155.4z"></path>
		<path class="st0" d="M369.3,155.4l0-5.9c0-0.8,0-3.4-2.7-3.4c-1.7,0-2.9,1.2-2.9,3.4l0,5.9l-2,0l0-14.5l2,0l0,4.8h0    c1-1.5,2.6-1.4,3-1.4c1.7,0,3.1,0.7,3.8,1.9c0.4,0.7,0.7,1.6,0.7,2.8l0,6.4L369.3,155.4z"></path>
		<path class="st0" d="M379.4,150.9c0.5,2.1,2.2,3,3.6,3c1.5,0,2.6-0.9,3.1-1.8l2,0c-1,2.8-3.5,3.7-5.2,3.7c-3.1,0-5.5-2.7-5.5-5.7    c0-3.3,2.5-5.7,5.6-5.7c2.9,0,5.5,2.4,5.5,5.6c0,0.4,0,0.9-0.1,1L379.4,150.9z M386.4,149.3c-0.1-1.6-1.5-3.2-3.5-3.2    c-2,0-3.4,1.6-3.5,3.2L386.4,149.3z"></path>
		<path class="st0" d="M394.4,155.4l0-10.9l1.9,0l0,1h0c0.9-1.2,2.3-1.3,2.8-1.3l0,2.1c-0.3,0-1,0.1-1.5,0.4    c-0.6,0.4-1.2,1.2-1.2,2.7l0,5.9L394.4,155.4z"></path>
		<path class="st0" d="M413.5,155.5l0-1.7h0c-0.8,1.3-2.2,2-3.7,2c-3.7,0-5.8-2.8-5.8-5.7c0-2.7,1.9-5.8,5.8-5.8    c1.5,0,2.9,0.6,3.7,1.8h0l0-1.5l2,0l0,10.9L413.5,155.5z M409.8,146.2c-2.5,0-3.7,2.2-3.7,3.9c0,2,1.5,3.8,3.7,3.8    c2.1,0,3.8-1.7,3.8-3.8C413.6,147.7,411.9,146.2,409.8,146.2z"></path>
		<path class="st0" d="M422.5,144.6l1.9,0l0,1.7l0,0c1-1.4,2.5-2,3.9-2c3.7,0,5.6,3,5.6,5.9c0,2.7-2.1,5.6-5.5,5.6    c-2.3,0-3.4-1.2-3.8-1.9h0l0,5.2l-2,0L422.5,144.6z M428.2,146.2c-2.1,0-3.6,1.8-3.6,3.8c0,2.2,1.6,3.9,3.7,3.9    c1.9,0,3.7-1.5,3.7-3.8C431.9,148.1,430.4,146.2,428.2,146.2z"></path>
		<path class="st0" d="M443.3,159.1l-2.1,0l1.6-3.8l-4.3-10.7l2.2,0l3.2,8.4l3.3-8.4l2.2,0L443.3,159.1z"></path>
		<path class="st0" d="M465.2,151.2c0,0.5,0.2,2.6,2.4,2.6c1.3,0,2.3-0.9,2.3-2.5c0-1.6-1.3-2-2.3-2.4c-1.9-0.7-2.4-1-3.1-1.6    c-0.7-0.6-1-1.7-1-2.7c0-1.7,1.3-3.9,4.1-3.9c2.4,0,4.2,1.6,4.2,4l-2.1,0c0-1.6-1.2-2.1-2-2.1c-1.3,0-1.9,1.1-1.9,2    c0,1.4,1.3,1.8,1.9,2c1.8,0.7,4.5,1.3,4.5,4.8c0,2.5-1.8,4.4-4.5,4.4c-2,0-4.5-1.3-4.5-4.6L465.2,151.2z"></path>
		<path class="st0" d="M483.1,155.8c-3.7,0-5.9-3.1-5.9-5.8c0-3,2.5-5.7,5.9-5.6c3.3,0,5.9,2.6,5.9,5.7    C489,152.7,486.8,155.8,483.1,155.8z M483.1,146.3c-2.3,0-3.8,1.9-3.8,3.8c0,2,1.5,3.9,3.8,3.9c2.2,0,3.8-1.8,3.8-3.9    C486.9,148.2,485.4,146.3,483.1,146.3z"></path>
		<path class="st0" d="M497,155.6l-2,0l0-14.5l2,0L497,155.6z"></path>
		<path class="st0" d="M505.6,144.7l0,5.9c0,2.7,1.2,3.4,2.7,3.4c1.7,0,2.8-1.1,2.9-3.5l0-5.8l2,0l0,10.9l-1.9,0l0-1.2h0    c-0.6,0.9-1.8,1.5-3.2,1.4c-1.2,0-2.3-0.4-3.1-1.1c-0.9-0.8-1.4-2-1.4-4.2l0-5.9L505.6,144.7z"></path>
		<path class="st0" d="M522,155.6l-2,0l0-9l-1.5,0l0-1.9l1.5,0l0-3.7l2,0l0,3.7l1.8,0l0,1.9l-1.8,0L522,155.6z"></path>
		<path class="st0" d="M531.2,155.6l-2,0l0-10.9l2,0L531.2,155.6z M531.2,143.5l-2,0l0-2.4l2,0L531.2,143.5z"></path>
		<path class="st0" d="M543,155.9c-3.7,0-5.9-3.1-5.9-5.8c0-3,2.5-5.7,5.9-5.6c3.3,0,5.9,2.6,5.9,5.7    C548.9,152.8,546.7,155.9,543,155.9z M543,146.3c-2.3,0-3.8,1.9-3.8,3.8c0,2,1.5,3.9,3.8,3.9c2.2,0,3.8-1.8,3.8-3.9    C546.8,148.2,545.3,146.3,543,146.3z"></path>
		<path class="st0" d="M562.5,155.7l0-5.9c0-0.8,0-3.4-2.7-3.4c-1.7,0-2.9,1.2-2.9,3.4l0,5.9l-2,0l0-10.9l1.9,0l0,1.2l0,0    c1.1-1.5,2.8-1.4,3.2-1.4c1.7,0,3.1,0.7,3.8,1.9c0.4,0.7,0.7,1.6,0.7,2.8l0,6.4L562.5,155.7z"></path>
		<path class="st0" d="M575.4,147.7c-0.1-0.9-0.6-1.3-1.4-1.3c-0.7,0-1.3,0.5-1.3,1.2c0,0.9,0.8,1.1,1.7,1.4    c0.8,0.3,3.3,0.9,3.3,3.5c0,1.9-1.3,3.5-3.7,3.5c-1.4,0-3.8-0.9-3.8-3.9l2,0c0.1,1.2,0.7,2,1.8,2c0.9,0,1.6-0.6,1.6-1.5    c0-1-0.8-1.3-1.9-1.7c-1.2-0.4-3.1-1-3.1-3.3c0-1.6,1.4-3.1,3.4-3.1c1.2,0,3.3,0.8,3.3,3.2L575.4,147.7z"></path>
		<path class="st0" d="M581.7,155.5c0,0.7-0.1,2.3-2,2.7l0-1.2c0.3-0.1,0.7-0.3,0.7-1.1v-0.2l-0.7,0l0-2.4l2,0L581.7,155.5z"></path>
		<path class="st0" d="M592.4,155.7l0-14.5l2.1,0l0,14.5L592.4,155.7z"></path>
		<path class="st0" d="M608.8,155.7l0-5.9c0-0.8,0-3.4-2.7-3.4c-1.7,0-2.9,1.2-2.9,3.4l0,5.9l-2,0l0-10.9l1.9,0l0,1.2h0    c1.1-1.5,2.8-1.4,3.2-1.4c1.7,0,3.1,0.7,3.8,1.9c0.4,0.7,0.7,1.6,0.7,2.8l0,6.4L608.8,155.7z"></path>
		<path class="st0" d="M625.5,148.5c-0.3-0.7-1.1-2-3.1-2c-2.6,0-3.6,2.2-3.6,3.8c0,1.9,1.2,3.9,3.5,3.9c1.5,0,2.6-0.9,3.1-2l2.3,0    c-0.8,2.4-2.9,3.9-5.4,3.9c-3.6,0-5.6-2.9-5.6-5.7c0-2.9,2.2-5.7,5.6-5.7c3.1,0,4.9,2.3,5.3,3.9L625.5,148.5z"></path>
	</g>
	<g>
		<g>
			<path class="st1" d="M227.7,73c0.1-0.8,0.5-1.4,0.9-1.8c0.5-0.4,1-0.6,1.6-0.7c0.6,0,1.1,0.2,1.6,0.6c0.5,0.4,0.9,1,1.2,1.9v0.4     c1-1,2.1-1.8,3.3-2.3c1.2-0.5,2.3-0.8,3.5-0.7c1.1,0,2.2,0.4,3.2,1.1c1,0.7,1.9,1.8,2.6,3.3c0.9,1.9,1.5,4,1.6,6.1     c0.1,2.1-0.1,4.3-0.6,6.5c-0.5,2.2-1.2,4.4-2.2,6.6c-1,2.2-2.1,4.3-3.3,6.2c1.6,0.4,2.9,1.3,3.8,2.5c0.9,1.2,1.5,2.6,1.9,4.1     c0.3,1.5,0.4,3.1,0.3,4.8c-0.2,1.7-0.6,3.2-1.2,4.5c-0.7,1.7-1.6,3.3-2.5,4.8c-0.9,1.4-2,2.8-3.4,3.9c-1.1,1-2.3,1.9-3.6,2.5     c-1.2,0.6-2.6,1-3.9,1.3c-0.3,0.4-0.7,0.8-1.2,1c-0.5,0.2-1,0.3-1.4,0.3c-0.5,0-1-0.2-1.4-0.6c-0.4-0.3-0.7-0.8-0.9-1.5     c0-0.3-0.1-0.6-0.1-1c0-0.4-0.1-1-0.1-2c0-1,0-2.4,0-4.2c0-1.8,0.1-4.3,0.2-7.5c-0.6,0-1.3-0.3-2-1c-0.4-0.6-0.6-1.2-0.6-1.8     c0-0.6,0.1-1.2,0.3-1.8c0.2-0.6,0.5-1.2,1-1.7c0.4-0.6,0.9-1.1,1.4-1.6V73z M233,79.9c0,1.5,0,3.1,0,5c0,1.8,0,3.7,0,5.6     c0,1.9,0,3.8,0,5.6c0,1.8,0,3.5,0,5.1c0.1,0,0.2-0.1,0.3-0.1c0.1,0,0.2-0.1,0.3-0.1c1.1-0.5,2.1-1.5,3-2.8     c0.9-1.3,1.8-2.8,2.5-4.5c0.7-1.7,1.3-3.5,1.8-5.4c0.5-1.9,0.8-3.7,0.9-5.4c0.1-1.7,0.1-3.1-0.2-4.4c-0.2-1.2-0.7-2.1-1.4-2.5     c-0.7-0.4-1.7-0.4-2.9,0.2C236.2,76.6,234.7,77.9,233,79.9z M241,107.1c-0.4-1-0.9-1.6-1.6-1.7c-0.6-0.2-1.4-0.2-2.2,0     c-0.6,0.7-1.3,1.5-2,2.3c-0.7,0.8-1.4,1.6-2.2,2.4v12.6c1.3-0.5,2.5-1.3,3.8-2.4c1.2-1.1,2.2-2.4,3-3.8c0.8-1.4,1.4-3,1.6-4.6     C241.7,110.1,241.6,108.6,241,107.1z"></path>
			<path class="st1" d="M257.7,72.8c0-0.6,0.2-1.2,0.8-1.7c0.6-0.5,1.2-0.8,1.9-0.9c0.7-0.1,1.4,0.1,2,0.5c0.6,0.4,1,1.2,1.1,2.3     l-0.5,7.4c-0.3,5.2-0.5,10.3-0.4,15.5c0,5.2,0.4,10.4,1,15.5c0,0.3,0.1,1.1,0.3,2.3c0.1,1.2,0.4,2.4,0.6,3.8     c0.3,1.3,0.6,2.6,1.1,3.7c0.5,1.1,1.1,1.8,1.7,2c0.3,0.1,0.8-0.1,1.5-0.6c0.6-0.6,1.3-1.3,1.9-2.2c0.6-0.9,1.2-1.8,1.7-2.8     c0.5-1,0.8-1.8,0.9-2.5c0.4-2.8,0.6-6,0.7-9.6c0.1-3.5,0.1-7.2,0-11c0-3.8-0.1-7.5-0.1-11.2c0-3.7,0-7.1,0.3-10.1     c0-0.1,0-0.2,0-0.2c0,0,0-0.1,0-0.1c0-0.9,0.3-1.6,0.8-2c0.5-0.4,1-0.7,1.6-0.7c0.6,0,1.2,0.2,1.7,0.6c0.5,0.4,0.9,1,1.1,1.9     c0.1,4.1,0.2,8.3,0.1,12.7c-0.1,4.4-0.2,8.9-0.3,13.5c-0.1,4.5-0.3,9-0.3,13.5c-0.1,4.5,0,8.7,0.3,12.8c0,1.3-0.3,2.4-0.8,3.1     c-0.5,0.7-1.2,1.1-1.8,1.1c-0.7,0-1.3-0.4-1.9-1.2c-0.6-0.8-0.9-2.1-1-4c-0.7,1.2-1.5,2.3-2.5,3.2c-0.9,0.9-1.9,1.5-3,1.8     c-1.1,0.3-2.1,0.2-3.2-0.2c-1.1-0.4-2.1-1.3-3.1-2.7c-0.9-1.3-1.7-3-2.3-5.1c-0.6-2.1-1.1-4.4-1.5-6.8c-0.4-2.5-0.7-5.1-0.9-7.7     c-0.2-2.7-0.3-5.3-0.4-7.8c0-2.5-0.1-4.8-0.1-7c0-2.2,0-4,0-5.5c0-0.2,0-0.9,0.1-2.2c0-1.3,0.1-2.7,0.2-4.2     c0.1-1.6,0.2-3,0.3-4.4C257.5,74.1,257.6,73.2,257.7,72.8z"></path>
			<path class="st1" d="M291.5,129.3c-0.8-0.1-1.4-0.5-1.7-1.1c-0.3-0.6-0.5-1.2-0.4-1.8c0.1-0.6,0.3-1.2,0.8-1.7     c0.4-0.5,1-0.8,1.8-0.8h4.9c0-4,0.1-8,0.1-11.9c0-3.9,0-7.8,0-11.7c0-3.9,0-7.8-0.1-11.8c0-4,0-8,0-12.2c-0.8,0-1.5,0-1.9,0     c-0.4,0-0.7,0-0.9,0c-0.2,0-0.5,0-0.7,0.1c-0.3,0-0.7,0.1-1.4,0.1c-0.8-0.1-1.5-0.5-2-0.9c-0.5-0.5-0.7-1-0.8-1.6     c-0.1-0.6,0.1-1.1,0.4-1.7c0.3-0.6,0.9-1,1.7-1.4c0.3-0.1,1-0.3,1.9-0.4c0.9-0.1,2-0.2,3.2-0.2c1.2,0,2.5-0.1,3.8-0.1     c1.3,0,2.6,0,3.8,0c1.2,0,2.2,0,3.2,0.1c0.9,0,1.5,0.1,1.9,0.1c0.9,0.2,1.5,0.7,1.9,1.3c0.4,0.6,0.5,1.2,0.4,1.9     c-0.1,0.6-0.4,1.2-0.9,1.7c-0.5,0.5-1.1,0.7-1.9,0.7h0.1c-1,0-2.1,0-3.2,0.1c-1.1,0-2.2,0.1-3.3,0.1c-0.1,7.8-0.1,15.7,0,23.6     c0,8,0,15.9,0,23.7c1,0,2-0.1,3-0.1c1,0,2,0.1,2.9,0.3c0.7,0.1,1.3,0.5,1.7,1c0.4,0.5,0.6,1.1,0.6,1.7c0,0.6-0.1,1.2-0.4,1.7     c-0.3,0.5-0.8,0.9-1.4,1c-1.1,0.1-2.5,0.2-4,0.2c-1.5,0-3.1,0-4.7,0c-1.6,0-3.2-0.1-4.6-0.1C293.8,129.5,292.5,129.4,291.5,129.3     z"></path>
			<path class="st1" d="M323.1,129.6c-0.5,0.1-1.1,0-1.8-0.3c-0.6-0.3-1.1-0.9-1.3-1.7c0.1-4.7,0.2-9.2,0.2-13.7c0-4.5,0-8.9,0-13.3     c0-4.4,0-8.9,0-13.5c0-4.5,0-9.2,0-14.1c0.1-0.8,0.5-1.4,1-1.8c0.5-0.4,1-0.6,1.6-0.7c0.5,0,1.1,0.2,1.6,0.6c0.5,0.4,1,1,1.3,1.9     c-0.1,8.2-0.1,16.5-0.1,24.9c0,8.4,0.1,16.8,0.1,25.1c2.1-0.5,4.2-0.9,6.4-1c2.2-0.1,4.3,0,6.4,0.4c0.8,0.2,1.4,0.7,1.8,1.3     c0.3,0.6,0.5,1.2,0.4,1.8c-0.1,0.6-0.3,1.2-0.8,1.7c-0.4,0.5-1,0.9-1.8,1h-0.1c-2.5,0-5,0-7.4,0     C328.1,128.2,325.6,128.7,323.1,129.6z"></path>
			<path class="st1" d="M350.9,73c0-0.5,0.1-1.1,0.3-1.7c0.3-0.6,0.8-0.9,1.7-0.9c3.2-0.2,6,0.4,8.4,1.8c2.4,1.4,4.4,3.3,6,5.8     c1.6,2.5,2.8,5.3,3.6,8.5c0.8,3.2,1.3,6.6,1.3,10.1c0.1,3.5-0.2,7-0.9,10.5c-0.7,3.5-1.7,6.7-3.2,9.7c-1.4,3-3.2,5.6-5.4,7.8     c-2.2,2.2-4.7,3.7-7.5,4.6c-0.4,0.1-1,0.2-1.5,0.2c-0.6,0-1.1-0.1-1.6-0.2c-0.5-0.1-0.9-0.3-1.2-0.6c-0.3-0.3-0.5-0.7-0.5-1.2     c-0.1-10.3,0-19.8,0.1-28.7C350.9,90,350.9,81.4,350.9,73z M356.2,76c0,7.7,0,15.5,0,23.3c0,7.8,0,15.6,0,23.4     c2.1-1.2,3.9-2.8,5.4-4.9c1.5-2.1,2.7-4.5,3.5-7.1c0.9-2.6,1.4-5.4,1.7-8.3c0.3-2.9,0.3-5.7,0.1-8.5c-0.2-2.8-0.8-5.4-1.6-7.8     c-0.8-2.5-1.9-4.5-3.3-6.2c-0.9-1.2-1.9-2.1-3-2.9C358,76.4,357,76,356.2,76z"></path>
			<path class="st1" d="M384.7,108c-0.6-0.2-1.1-0.5-1.5-1c-0.3-0.5-0.5-1-0.6-1.6c0-0.6,0.1-1.1,0.5-1.7c0.3-0.6,0.9-1,1.6-1.3H402     c0.8,0,1.5,0.3,1.9,0.9c0.4,0.6,0.6,1.2,0.6,1.9c0,0.7-0.2,1.3-0.6,1.9c-0.4,0.6-1,0.9-1.7,0.9H384.7z"></path>
			<path class="st1" d="M420.9,109.8c-0.3,2.8-0.6,5.7-0.8,8.5c-0.2,2.9-0.3,5.7-0.4,8.5c-0.1,1-0.5,1.7-1.1,2.1     c-0.6,0.4-1.2,0.6-1.8,0.5c-0.6-0.1-1.2-0.4-1.7-0.9c-0.5-0.5-0.9-1.3-1-2.3c0.4-8.9,1.2-17.9,2.3-26.8     c1.1-8.9,2.3-17.9,3.8-26.8c0.1-0.6,0.5-1.2,1.2-1.6c0.6-0.4,1.3-0.6,2.1-0.7c0.7,0,1.4,0.1,2.1,0.4c0.7,0.3,1.1,0.9,1.4,1.8     c0.8,4.6,1.6,9,2.4,13.5c0.8,4.4,1.6,8.8,2.4,13.2c0.8,4.4,1.6,8.7,2.3,13.1c0.7,4.4,1.5,8.9,2.2,13.5c0,0.9-0.1,1.7-0.6,2.3     c-0.4,0.6-1,1-1.6,1.2c-0.6,0.2-1.3,0.1-1.9-0.3c-0.6-0.4-1.1-1.1-1.4-2c-0.2-1.7-0.5-3.3-0.7-4.8c-0.2-1.5-0.5-3-0.8-4.5     c-0.3-1.5-0.6-3-0.9-4.5c-0.3-1.5-0.6-3.1-0.9-4.8c-1-0.1-2-0.1-3.1,0C423.3,108.7,422.1,109.1,420.9,109.8z M421.6,103.4     c0.8-0.2,1.7-0.3,2.5-0.4c0.8,0,1.6-0.1,2.5-0.1c-0.4-2.4-0.8-4.9-1.2-7.3c-0.4-2.4-0.8-4.9-1.2-7.4l-0.4-2.2     c-0.1,0.7-0.2,1.4-0.2,2c0,0.7-0.1,1.4-0.2,2L421.6,103.4z"></path>
			<path class="st1" d="M448.1,108c-0.6-0.2-1.1-0.5-1.5-1c-0.3-0.5-0.5-1-0.6-1.6c0-0.6,0.1-1.1,0.5-1.7c0.3-0.6,0.9-1,1.6-1.3     h17.2c0.8,0,1.5,0.3,1.9,0.9c0.4,0.6,0.6,1.2,0.6,1.9c0,0.7-0.2,1.3-0.6,1.9c-0.4,0.6-1,0.9-1.7,0.9H448.1z"></path>
			<path class="st1" d="M478.1,73c0.1-0.8,0.5-1.4,0.9-1.8c0.5-0.4,1-0.6,1.6-0.7c0.6,0,1.1,0.2,1.6,0.6c0.5,0.4,0.9,1,1.2,1.9v0.4     c1-1,2.1-1.8,3.3-2.3c1.2-0.5,2.3-0.8,3.5-0.7c1.1,0,2.2,0.4,3.2,1.1c1,0.7,1.9,1.8,2.6,3.3c0.9,1.9,1.5,4,1.6,6.1     c0.1,2.1-0.1,4.3-0.6,6.5c-0.5,2.2-1.2,4.4-2.2,6.6c-1,2.2-2.1,4.3-3.3,6.2c1.6,0.4,2.9,1.3,3.8,2.5c0.9,1.2,1.5,2.6,1.9,4.1     c0.3,1.5,0.4,3.1,0.3,4.8c-0.2,1.7-0.6,3.2-1.2,4.5c-0.7,1.7-1.6,3.3-2.5,4.8c-0.9,1.4-2,2.8-3.4,3.9c-1.1,1-2.3,1.9-3.6,2.5     c-1.2,0.6-2.6,1-3.9,1.3c-0.3,0.4-0.7,0.8-1.2,1c-0.5,0.2-1,0.3-1.4,0.3c-0.5,0-1-0.2-1.4-0.6c-0.4-0.3-0.7-0.8-0.9-1.5     c0-0.3-0.1-0.6-0.1-1c0-0.4-0.1-1-0.1-2c0-1,0-2.4,0-4.2c0-1.8,0.1-4.3,0.2-7.5c-0.6,0-1.3-0.3-2-1c-0.4-0.6-0.6-1.2-0.6-1.8     c0-0.6,0.1-1.2,0.3-1.8c0.2-0.6,0.5-1.2,1-1.7c0.4-0.6,0.9-1.1,1.4-1.6V73z M483.4,79.9c0,1.5,0,3.1,0,5c0,1.8,0,3.7,0,5.6     c0,1.9,0,3.8,0,5.6c0,1.8,0,3.5,0,5.1c0.1,0,0.2-0.1,0.3-0.1c0.1,0,0.2-0.1,0.3-0.1c1.1-0.5,2.1-1.5,3-2.8     c0.9-1.3,1.8-2.8,2.5-4.5c0.7-1.7,1.3-3.5,1.8-5.4c0.5-1.9,0.8-3.7,0.9-5.4c0.1-1.7,0.1-3.1-0.2-4.4c-0.2-1.2-0.7-2.1-1.4-2.5     c-0.7-0.4-1.7-0.4-2.9,0.2C486.6,76.6,485.1,77.9,483.4,79.9z M491.4,107.1c-0.4-1-0.9-1.6-1.6-1.7c-0.6-0.2-1.4-0.2-2.2,0     c-0.6,0.7-1.3,1.5-2,2.3c-0.7,0.8-1.4,1.6-2.2,2.4v12.6c1.3-0.5,2.5-1.3,3.8-2.4c1.2-1.1,2.2-2.4,3-3.8c0.8-1.4,1.4-3,1.6-4.6     C492.1,110.1,492,108.6,491.4,107.1z"></path>
			<path class="st1" d="M511.2,129.6c-0.5,0.1-1.1,0-1.8-0.3c-0.6-0.3-1.1-0.9-1.3-1.7c0.1-4.7,0.2-9.2,0.2-13.7c0-4.5,0-8.9,0-13.3     c0-4.4,0-8.9,0-13.5c0-4.5,0-9.2,0-14.1c0.1-0.8,0.5-1.4,1-1.8c0.5-0.4,1-0.6,1.6-0.7c0.5,0,1.1,0.2,1.6,0.6c0.5,0.4,1,1,1.3,1.9     c-0.1,8.2-0.1,16.5-0.1,24.9c0,8.4,0.1,16.8,0.1,25.1c2.1-0.5,4.2-0.9,6.4-1c2.2-0.1,4.3,0,6.4,0.4c0.8,0.2,1.4,0.7,1.8,1.3     c0.3,0.6,0.5,1.2,0.4,1.8c-0.1,0.6-0.3,1.2-0.8,1.7c-0.4,0.5-1,0.9-1.8,1H526c-2.5,0-5,0-7.4,0     C516.1,128.2,513.6,128.7,511.2,129.6z"></path>
			<path class="st1" d="M553.5,71.2c1.7,1,3.1,2.5,4.2,4.3c1.1,1.8,1.9,3.9,2.5,6.2c0.6,2.3,1,4.8,1.1,7.5c0.1,2.7,0.1,5.4-0.1,8.1     c-0.2,2.7-0.5,5.4-0.9,8c-0.4,2.6-0.9,4.9-1.4,7.1c-0.2,1-0.6,2.2-1,3.6c-0.4,1.4-0.9,2.7-1.5,4.2c-0.6,1.4-1.3,2.8-2.1,4.1     c-0.8,1.3-1.7,2.4-2.8,3.3c-1,0.9-2.2,1.5-3.5,1.9c-1.3,0.4-2.8,0.3-4.3-0.1c-1-0.3-2-0.9-2.8-1.8c-0.8-0.9-1.5-1.9-2-3     c-0.6-1.1-1-2.3-1.4-3.4c-0.4-1.2-0.7-2.2-0.9-3c-0.2-1.1-0.5-2.8-0.8-4.9c-0.3-2.1-0.5-4.5-0.6-7.2c-0.1-2.7-0.2-5.5-0.1-8.5     c0.1-3,0.3-5.9,0.7-8.8c0.4-2.8,1.1-5.5,1.9-8c0.8-2.5,2-4.6,3.3-6.3c1.4-1.7,3.1-2.8,5.1-3.5C548.3,70.2,550.7,70.3,553.5,71.2z      M552.9,78.3c-0.4-0.6-0.9-1.1-1.6-1.5c-0.6-0.4-1.3-0.7-2-0.9c-0.7-0.1-1.4-0.1-2.2,0.1c-0.7,0.2-1.4,0.6-1.9,1.3     c-0.8,1-1.5,2.3-2.1,3.9c-0.6,1.6-1,3.3-1.4,5.2c-0.3,1.9-0.6,3.8-0.8,5.9c-0.2,2.1-0.3,4.1-0.3,6c-0.1,2,0,3.8,0,5.5     c0.1,1.7,0.2,3.2,0.3,4.5c0,0.6,0.2,1.6,0.4,3.1c0.2,1.5,0.5,3,0.8,4.6c0.3,1.6,0.8,3.1,1.3,4.6c0.5,1.4,1.2,2.5,1.9,3     c0.7,0.6,1.5,0.6,2.5,0c0.9-0.6,2-2.2,3.2-4.6c0.5-1.2,1-2.5,1.4-3.9c0.4-1.3,0.8-2.7,1.2-3.9c0.3-1.2,0.6-2.8,0.9-4.5     c0.3-1.8,0.6-3.7,0.8-5.8c0.2-2.1,0.4-4.2,0.4-6.4c0.1-2.2,0-4.3-0.1-6.3c-0.1-2-0.4-3.9-0.9-5.6     C554.3,80.8,553.6,79.4,552.9,78.3z"></path>
			<path class="st1" d="M572.7,89.5c0.2-2,0.5-3.9,0.8-5.7c0.3-1.8,0.7-3.5,1.2-5c0.5-1.5,1-2.9,1.7-4.1c0.6-1.2,1.5-2.1,2.5-2.9     c1.7-1,3.2-1.5,4.6-1.5c1.4,0,2.6,0.4,3.7,1.2c1.1,0.7,2,1.7,2.9,3c0.8,1.3,1.5,2.6,2,4.1c0.5,1.5,0.9,2.9,1.2,4.4     c0.2,1.5,0.4,2.7,0.4,3.8c0,0.9-0.3,1.6-0.8,2.2c-0.5,0.6-1.1,0.9-1.7,1.1c-0.6,0.1-1.3,0.1-1.8-0.3c-0.6-0.3-0.9-0.9-1.1-1.8     c-0.1-0.8-0.3-1.9-0.6-3.4c-0.2-1.5-0.6-2.9-1-4.2c-0.4-1.3-1-2.4-1.7-3.3c-0.7-0.8-1.5-1-2.6-0.5c-0.7,0.4-1.3,1.5-1.8,3.3     c-0.7,2.7-1.2,5.3-1.6,7.8c-0.3,2.5-0.6,4.9-0.7,7.3c-0.1,2.4-0.2,4.6-0.1,6.9c0,2.2,0.1,4.5,0.2,6.7c0,0.3,0.1,1.3,0.2,2.7     c0.1,1.5,0.3,3.1,0.6,4.8c0.2,1.7,0.6,3.3,1,4.8c0.4,1.5,1,2.4,1.6,2.7c1,0.5,1.8,0.3,2.5-0.5c0.7-0.8,1.2-1.9,1.7-3.2     c0.4-1.3,0.8-2.7,1-4.2c0.2-1.5,0.5-2.6,0.7-3.5c0.1-0.9,0.4-1.5,1-1.8c0.6-0.3,1.2-0.4,1.9-0.3c0.6,0.1,1.2,0.5,1.7,1.1     c0.5,0.6,0.8,1.3,0.8,2.1c-0.1,1.1-0.4,2.4-0.7,3.8c-0.3,1.5-0.8,2.9-1.4,4.3c-0.6,1.4-1.2,2.8-2,4.1c-0.8,1.3-1.7,2.3-2.7,3     c-1,0.7-2.2,1.1-3.5,1.2c-1.3,0-2.8-0.4-4.3-1.5c-1.6-1.1-2.9-3.1-3.8-5.9c-0.9-2.8-1.6-6-2-9.7c-0.4-3.7-0.6-7.5-0.5-11.6     C571.9,97,572.2,93.1,572.7,89.5z"></path>
			<path class="st1" d="M604.7,73c0.1-0.8,0.5-1.4,1-1.8c0.5-0.4,1-0.6,1.6-0.7c0.5,0,1.1,0.2,1.6,0.6c0.5,0.4,1,1,1.3,1.9     c0,3.5-0.1,7.1-0.1,10.6c0,3.6,0,7.2,0,10.8c2.2-3.6,4.4-7.2,6.6-10.6c2.2-3.5,4.5-6.7,7-9.6c0.8-0.6,1.5-0.8,2.2-0.7     c0.7,0.1,1.2,0.4,1.6,1c0.4,0.5,0.6,1.2,0.6,2c0,0.8-0.3,1.6-0.9,2.4c-1.3,1.8-2.6,3.6-3.7,5.3c-1.1,1.8-2.3,3.5-3.3,5.2     c-1.1,1.7-2.2,3.4-3.3,5.1c-1.1,1.7-2.3,3.3-3.5,4.8c1.1,1.9,2.4,4,3.7,6.3c1.3,2.3,2.6,4.5,3.9,6.8c1.3,2.3,2.5,4.6,3.6,6.8     c1.1,2.2,2.1,4.2,2.9,6.1c0.4,0.9,0.5,1.7,0.3,2.5c-0.2,0.7-0.6,1.3-1.1,1.6c-0.5,0.3-1.1,0.4-1.8,0.2c-0.7-0.2-1.3-0.7-1.8-1.6     c-2.3-4-4.5-8-6.6-11.8c-2.1-3.9-4.1-7.7-6.1-11.4v22.8c-0.2,0.7-0.6,1.2-1.1,1.6c-0.5,0.3-1.1,0.5-1.6,0.6     c-0.6,0-1.1-0.1-1.7-0.4c-0.5-0.3-0.9-0.9-1.2-1.6c0.1-4.7,0.2-9.2,0.2-13.7c0-4.5,0-8.9,0-13.3c0-4.4,0-8.9,0-13.5     C604.7,82.6,604.7,77.9,604.7,73z"></path>
		</g>
	</g>
</g>
<g>
	
		<rect x="124.1" y="73.3" transform="matrix(0.2913 -0.9566 0.9566 0.2913 26.8434 183.2462)" class="st2" width="26.1" height="0.5"></rect>
	<polygon class="st2" points="95.6,28.3 21.1,100.1 20.5,99.5 95,27.7  "></polygon>
	<rect x="96.5" y="20.9" transform="matrix(0.9239 -0.3827 0.3827 0.9239 0.282 44.0569)" class="st2" width="28.7" height="0.8"></rect>
	<g>
		
			<rect x="137.5" y="20.9" transform="matrix(0.9902 -0.1394 0.1394 0.9902 -3.3959 19.5402)" class="st2" width="0.5" height="26.3"></rect>
		<path class="st3" d="M137.7,56.6c-0.8,0.1-1.7,6.4,2.9,6.6c2.2,0.1,3.9-1.8,4-3.9c0.1-2.2-0.9-3.1-1.9-4.2    c-0.8-0.8-0.5-1.7-0.8-3.9c-0.1-0.7-0.9-1.6-1.9-1.4c-1.9,0.3-1.5,2.4-1,3.6c0.6,1.4,1.5,2.3,2.3,3.1c0.7,0.7,1.4,1.4,1.3,2.8    c0,1.1-0.9,2.1-2.1,2.1C137.8,61.2,139,56.7,137.7,56.6z"></path>
		<path class="st4" d="M139.2,53.8l2.9-0.4c0-0.8,0.3-1.9,0.2-2.8c-0.1-1.2-0.8-2.2-2.4-2l0,0C136.6,49,138.3,52.1,139.2,53.8z"></path>
		<path class="st5" d="M139.2,44L139.2,44c0.4-0.1,0.7,0.2,0.8,0.6l0.8,6c0.1,0.4-0.2,0.7-0.6,0.8l0,0c-0.4,0.1-0.7-0.2-0.8-0.6    l-0.8-6C138.5,44.4,138.8,44,139.2,44z"></path>
	</g>
	<g>
		<path class="st3" d="M133.6,16.6c2.9-0.2,5.4,2.1,5.6,5c0.2,2.9-2.1,5.4-5,5.6c-2.9,0.2-5.4-2.1-5.6-5    C128.4,19.3,130.7,16.8,133.6,16.6z"></path>
		<path class="st5" d="M133.8,20c1-0.1,1.9,0.7,2,1.8c0.1,1-0.7,1.9-1.8,2c-1,0.1-1.9-0.7-2-1.8C131.9,21,132.8,20.1,133.8,20z"></path>
		<path class="st6" d="M122.6,12.9c1.5-2.2,1.3-2.3,3.7-1.4c2.2,0.8,3.7,1.4,5.6,2.7l4.2,2.8c0.4-0.5,0.5-0.7,0.8-0.5    c0.2,0.2,0.2,0.4-0.1,0.9l-2,3.1l-2,3.1l-2,3.1c-2.2-1.5-2.6-1.8-4.9-3.2c-1.9-1.3-3.1-2.4-4.7-4.1c-1.8-2-1.6-1.8-0.2-4    L122.6,12.9z"></path>
		<path class="st7" d="M134.6,16l1.6,1c0.4-0.5,0.5-0.7,0.8-0.5c0.2,0.2,0.2,0.4-0.1,0.9l-2,3.1l-2,3.1l-2,3.1    c-1.1-0.7-1.8-1.2-2.4-1.6C130.7,21.5,132.8,18.5,134.6,16z"></path>
	</g>
	<g>
		<path class="st3" d="M67.2,81.4l51.6-48.6l2.7,3.1L71.7,82.9L67.2,81.4z"></path>
		<path class="st6" d="M42.4,87.1c0,0-28.7,4.7-28.7,28.7c0,14.2,0.1,15.8,0.1,27l12.9,9.7l0-0.4c-2-3.4-3.1-7.4-3.1-11.6    c0-11.6,8.6-21.3,19.7-23c1.5-0.3,3-0.5,4.5-0.5c0.9,0,1.7,0.1,2.6,0.2l1.2-6.6L42.4,87.1z"></path>
		<path class="st7" d="M17,103.1c-2,3.5-3.2,7.6-3.2,12.6c0,14.2,0.1,15.8,0.1,27l12.9,9.7l0-0.4c-2-3.4-3.1-7.4-3.1-11.6    c0-8.6,4.7-16.2,11.7-20.2C28.3,114.9,22.2,108.9,17,103.1z"></path>
		<path class="st8" d="M44.6,88.8c0,0-28.7,4.7-28.7,28.7c0,5,0.6,11.6,0.7,14.4c0.4-7.5,0.6-10.2,0.7-12.5    C18,97.4,41.6,91.7,45.5,90.9L44.6,88.8z"></path>
		<path class="st9" d="M44.6,49.6c1.3-1.6,4.6-1.3,6.5-0.5l27.5,11.6L67,70.8C62.4,68.2,39.1,56.9,44.6,49.6z"></path>
		<path class="st7" d="M13.8,138.8c0,1.2,0,2.5,0,3.9l12.9,9.7l0-0.4c-2-3.4-3.1-7.4-3.1-11.6c0-0.5,0-1.1,0.1-1.6H13.8z"></path>
		<path class="st6" d="M48.5,50.1L48.5,50.1c1.4,0.1,2.4,1.3,2.3,2.7l-1.9,23l-5.1-0.4l1.9-23C45.8,51,47.1,50,48.5,50.1z"></path>
		<path class="st10" d="M12.5,134.9h10.5v7.7H12.5c-1.4,0-2.6-1.7-2.6-3.9v0C9.9,136.7,11.1,134.9,12.5,134.9z"></path>
		<path class="st11" d="M23.1,138.8v3.8H12.5c-1.4,0-2.6-1.7-2.6-3.8H23.1z"></path>
		<path class="st10" d="M70.8,104.5H84V74H70.8v-3.9h14.8h2.5h0v0c9.9,0.6,15.3,27.6,17.8,36.2l1.8,9.1H70.8V104.5z M57.6,104.5    h13.2v11H53.7L57,70.1h13.8V74H59.5L57.6,104.5z"></path>
		<path class="st6" d="M40,85.8l81.5-67.2l0.1-0.1l2-5.8c0.5-1.5,4.6-1,4.6,0.8l-0.1,4.5c0.1,0.1,0.1,0.1,0.2,0.2l0,0    c1.4,1.7,0.8,4.7-1.5,6.6L45.3,92L40,85.8z"></path>
		<path class="st9" d="M53.1,79.7l9.3,37.3H30.5l9.3-37.3C41.7,72.4,51.3,72.4,53.1,79.7z"></path>
		<path class="st11" d="M46.1,81.9c1.9,0,3.4-1.5,3.4-3.4c0-1.9-1.5-3.4-3.4-3.4c-1.9,0-3.4,1.5-3.4,3.4    C42.6,80.3,44.2,81.9,46.1,81.9z"></path>
		<path class="st6" d="M35.5,110.1l48.9-46.8l4.5,4.7L40,114.9L35.5,110.1z"></path>
		<path class="st7" d="M42.6,107l9.9,10.9c-1.8-0.4-3.7-0.7-5.6-0.7c-3.6,0-7,0.8-10,2.3l-2.1-8.4C33.5,106.2,39.2,103.2,42.6,107z"></path>
		<path class="st11" d="M39.4,114c1.8,0,3.3-1.5,3.3-3.3c0-1.8-1.5-3.3-3.3-3.3c-1.8,0-3.3,1.5-3.3,3.3    C36.1,112.5,37.6,114,39.4,114z"></path>
		<path class="st12" d="M31.2,114.7h75.6c4.9,0,9.3,3.8,11.4,9.3c-4.2-4.1-10-6.7-16.3-6.7c-7.5,0-14.2,3.6-18.5,9.1H65.4    c-4.2-5.6-10.9-9.2-18.5-9.2c-7.5,0-14.2,3.6-18.5,9.2h-3v-3.9C25.4,118.2,28,114.7,31.2,114.7L31.2,114.7z M25.4,126.4h3    c-1.2,1.6-2.2,3.3-3,5.2V126.4L25.4,126.4z M80.4,149.3h-12c1.1-2.7,1.7-5.7,1.7-8.8c0-2.5-0.4-4.8-1.1-7.1l0,0    c-0.8-2.6-2.1-4.9-3.6-7h18.1c-1.6,2.1-2.8,4.4-3.7,7l0,0c-0.7,2.2-1.1,4.6-1.1,7.1C78.7,143.6,79.3,146.6,80.4,149.3z"></path>
		<path class="st13" d="M35.3,120.3c-2.7,1.6-5.1,3.6-7,6.1h-3v-3.9c0-3.3,1.6-6.1,3.7-7.3C31.1,116.9,33.2,118.6,35.3,120.3    L35.3,120.3z M25.4,126.4h3c-1.2,1.6-2.2,3.3-3,5.2V126.4z"></path>
		<path class="st11" d="M48.3,55c1.3,0,2.3-1,2.3-2.3c0-1.3-1-2.3-2.3-2.3c-1.3,0-2.3,1-2.3,2.3C46.1,53.9,47.1,55,48.3,55z"></path>
		<polygon class="st8" points="53.3,76.3 122.2,19.4 119.4,23.3 54.3,77.8   "></polygon>
		<path class="st8" d="M32.8,115.5h73c3.4,0,6.5,1.8,8.8,4.6c-2.1-2-4.7-3.2-7.5-3.2h-74c-2.5,0-4.2,1.8-5.1,4.2    c-0.6,1.6-0.8,3.6-1,4.9v-2.7C27,119,29.6,115.5,32.8,115.5z"></path>
		<path class="st13" d="M80.4,149.3h-12c1.1-2.7,1.7-5.7,1.7-8.8v0v0v0l0,0v0v0v0v0v0v0v0l0,0v0v0v0v0v0v0c0-0.4,0-0.9-0.1-1.3h0    c0-0.5-0.1-0.9-0.1-1.4c2.6,0.6,5.3,1.1,8,1.4h0.9c0,0.3,0,0.7,0,1v0v0l0,0l0,0v0v0l0,0v0v0v0v0v0v0l0,0l0,0v0v0v0v0l0,0v0v0v0    l0,0v0v0v0v0v0v0v0v0v0v0v0v0v0v0v0l0,0v0v0v0v0v0C78.7,143.6,79.3,146.6,80.4,149.3z"></path>
		<g>
			<path class="st9" d="M101.9,160.8c11.2,0,20.3-9.1,20.3-20.3c0-11.2-9.1-20.3-20.3-20.3c-11.2,0-20.3,9.1-20.3,20.3     C81.6,151.7,90.7,160.8,101.9,160.8z"></path>
			<path class="st14" d="M101.9,152.1c6.4,0,11.6-5.2,11.6-11.6c0-6.4-5.2-11.6-11.6-11.6c-6.4,0-11.6,5.2-11.6,11.6     C90.3,146.9,95.5,152.1,101.9,152.1z"></path>
			<path class="st15" d="M101.9,149.7c5.1,0,9.2-4.1,9.2-9.2c0-5.1-4.1-9.2-9.2-9.2c-5.1,0-9.2,4.1-9.2,9.2     C92.7,145.6,96.8,149.7,101.9,149.7z"></path>
			<path class="st8" d="M101.6,133.7c-1.1,0-2.1,0.2-3,0.6c0.2,0,0.3,0,0.5,0c4.8,0,8.7,3.6,9.3,8.2c0.1-0.6,0.2-1.1,0.2-1.7     C108.6,136.8,105.5,133.7,101.6,133.7z"></path>
		</g>
		<g>
			<path class="st9" d="M46.9,160.7c11.2,0,20.3-9.1,20.3-20.3c0-11.2-9.1-20.3-20.3-20.3c-11.2,0-20.3,9.1-20.3,20.3     C26.6,151.6,35.7,160.7,46.9,160.7z"></path>
			<path class="st14" d="M46.9,152c6.4,0,11.6-5.2,11.6-11.6c0-6.4-5.2-11.6-11.6-11.6c-6.4,0-11.6,5.2-11.6,11.6     C35.3,146.8,40.5,152,46.9,152z"></path>
			<path class="st15" d="M46.9,149.7c5.1,0,9.2-4.1,9.2-9.2c0-5.1-4.1-9.2-9.2-9.2c-5.1,0-9.2,4.1-9.2,9.2     C37.6,145.5,41.8,149.7,46.9,149.7z"></path>
			<path class="st8" d="M46.5,133.6c-1.1,0-2.1,0.2-3,0.6c0.2,0,0.3,0,0.5,0c4.8,0,8.7,3.6,9.3,8.2c0.1-0.6,0.2-1.1,0.2-1.7     C53.6,136.8,50.4,133.6,46.5,133.6z"></path>
		</g>
		<path class="st8" d="M87.6,104.5h14c-1.2-5.4-3.7-14-6.1-20.5c-2.7-8.4-7.5-9.9-7.9-10V104.5z"></path>
	</g>
	<g>
		<path class="st9" d="M138.4,136.7l-5,1.5c0,0-1.5,0.5-0.9,2.1l4.4,14.5c0,0,0.1,1.2,1.6,0.8l44.9-13.7c0,0,1.1-0.3,0.9-1.2    l-4.7-15.3c0,0-0.5-1.1-1.5-0.8l-5.6,1.7c0,0-0.4,0.4-0.6-0.5l-0.8-2.3c0,0,0-0.4-0.8-0.2l-11.1,3.4c0,0-0.5,0-0.2,0.8l0.8,2.4    c0,0,0.3,0.4,0,0.5l-8.2,2.4c0,0-0.4,0.3-0.5-0.2l-0.8-2.9c0,0,0.1-0.5-0.4-0.3l-11.2,3.4c0,0-0.5,0-0.4,0.5l0.8,2.8    C139,136.1,139.1,136.4,138.4,136.7z"></path>
		<path class="st7" d="M177.6,136.5h-3.5c0,0-1.1,0.1-1,1.9l0,16.4c0,0-0.2,1.3,0.9,1.3h31.7c0,0,0.8,0.1,0.8-1v-17.4    c0,0-0.1-1.3-0.8-1.3h-4c0,0-0.3,0.3-0.3-0.7l0-2.6c0,0,0.1-0.4-0.5-0.4H193c0,0-0.3-0.1-0.3,0.7l0,2.7c0,0,0.1,0.5-0.1,0.6    l-5.7-0.1c0,0-0.3,0.1-0.3-0.4l0-3.3c0,0,0.1-0.4-0.2-0.4h-7.9c0,0-0.3-0.1-0.3,0.4l-0.1,3.2C178.1,136.1,178.1,136.5,177.6,136.5    z"></path>
		<path class="st16" d="M142.4,141.3h-4.3c0,0-1.3,0.1-1.2,1.5l0,12.3c0,0-0.2,1,1.1,1h38.3c0,0,1,0.1,1-0.7v-13.1c0,0-0.1-1-1-1    h-4.8c0,0-0.4,0.2-0.4-0.5l-0.1-2c0,0,0.1-0.3-0.6-0.3H161c0,0-0.4-0.1-0.4,0.6l0,2c0,0,0.1,0.4-0.1,0.4l-6.9-0.1    c0,0-0.4,0.1-0.3-0.3l0-2.5c0,0,0.2-0.3-0.2-0.3h-9.5c0,0-0.4-0.1-0.4,0.3l-0.1,2.4C143,141.1,143,141.3,142.4,141.3z"></path>
	</g>
	<g>
		<path class="st6" d="M121.8,27.7l0.3,11.4c0.1,2.4-2.6,4.4-4.9,3.7l-10.9-3.4L121.8,27.7z"></path>
		<path class="st11" d="M117.5,35.2c-1.4-0.2-2.7,0.7-2.9,2.1c-0.2,1.4,0.7,2.7,2.1,2.9c1.4,0.2,2.7-0.7,2.9-2.1    C119.9,36.7,118.9,35.4,117.5,35.2z"></path>
	</g>
	<path class="st6" d="M92.7,43.2l-1.1-13c-0.2-2.7,2.7-5.3,5.4-4.6l12.7,3.2L92.7,43.2z"></path>
	<path class="st11" d="M97.1,34.4c1.6,0.1,3-1,3.1-2.6c0.1-1.6-1-3-2.6-3.1c-1.6-0.1-3,1-3.1,2.6C94.3,32.8,95.5,34.2,97.1,34.4z"></path>
	<path class="st12" d="M130.1,85.4h-3.6c0,0-1.1,0.1-1,2l0,16.6c0,0-0.2,1.3,0.9,1.4h32c0,0,0.8,0.1,0.8-1V86.7c0,0-0.1-1.4-0.8-1.4   h-4c0,0-0.3,0.3-0.3-0.7l0-2.6c0,0,0.1-0.5-0.5-0.5h-7.9c0,0-0.3-0.1-0.3,0.8l0,2.7c0,0,0.1,0.5-0.1,0.6l-5.8-0.1   c0,0-0.3,0.1-0.3-0.4l0-3.3c0,0,0.1-0.5-0.2-0.5h-8c0,0-0.4-0.1-0.3,0.4l-0.1,3.2C130.6,85,130.6,85.4,130.1,85.4z"></path>
	<rect x="149.5" y="59.1" transform="matrix(0.9278 -0.373 0.373 0.9278 -20.1522 61.867)" class="st2" width="0.5" height="47.7"></rect>
</g>
</svg>